<?xml version="1.0" encoding="UTF-8" standalone="no"?>
<!DOCTYPE svg PUBLIC "-//W3C//DTD SVG 1.1//EN"
 "http://www.w3.org/Graphics/SVG/1.1/DTD/svg11.dtd">
<!-- Generated by graphviz version 2.40.1 (20161225.0304)
 -->
<!-- Title: G Pages: 1 -->
<svg width="253pt" height="178pt"
 viewBox="0.00 0.00 252.52 178.00" xmlns="http://www.w3.org/2000/svg" xmlns:xlink="http://www.w3.org/1999/xlink">
<g id="graph0" class="graph" transform="scale(1 1) rotate(0) translate(4 174)">
<title>G</title>
<polygon fill="#ffffff" stroke="transparent" points="-4,4 -4,-174 248.5238,-174 248.5238,4 -4,4"/>
<g id="clust1" class="cluster">
<title>cluster_1</title>
<polygon fill="none" stroke="#ffffff" points="8,-8 8,-162 78,-162 78,-8 8,-8"/>
<text text-anchor="middle" x="43" y="-146.8" font-family="Times,serif" font-size="14.00" fill="#000000">layer 2</text>
</g>
<g id="clust2" class="cluster">
<title>cluster_2</title>
<polygon fill="none" stroke="#ffffff" points="162,-8 162,-122 236.5238,-122 236.5238,-8 162,-8"/>
<text text-anchor="middle" x="199.2619" y="-106.8" font-family="Times,serif" font-size="14.00" fill="#000000">layer 3</text>
</g>
<!-- a12 -->
<g id="node1" class="node">
<title>a12</title>
<ellipse fill="none" stroke="#ee0000" cx="43" cy="-114" rx="27" ry="18"/>
</g>
<!-- a13 -->
<g id="node4" class="node">
<title>a13</title>
<ellipse fill="none" stroke="#ee0000" cx="199.2619" cy="-74" rx="28.5325" ry="18"/>
<text text-anchor="start" x="184.4929" y="-70.8" font-family="Times,serif" font-size="14.00" fill="#000000">a</text>
<text text-anchor="start" x="190.7067" y="-70.8" font-family="Times,serif" baseline-shift="sub" font-size="14.00" fill="#000000">1</text>
<text text-anchor="start" x="197.7067" y="-70.8" font-family="Times,serif" baseline-shift="super" font-size="14.00" fill="#000000">(3)</text>
</g>
<!-- a12&#45;&gt;a13 -->
<g id="edge1" class="edge">
<title>a12&#45;&gt;a13</title>
<path fill="none" stroke="#000000" d="M69.4189,-118.5723C92.0536,-121.3758 125.1521,-122.7863 152,-113 161.3951,-109.5754 170.2629,-103.4075 177.7238,-96.9726"/>
<polygon fill="#000000" stroke="#000000" points="180.2822,-99.3732 185.226,-90.0025 175.5176,-94.2449 180.2822,-99.3732"/>
<text text-anchor="start" x="100.5391" y="-130.8" font-family="Times,serif" font-size="14.00" fill="#000000">w</text>
<text text-anchor="start" x="110.6494" y="-130.8" font-family="Times,serif" baseline-shift="sub" font-size="14.00" fill="#000000">11</text>
<text text-anchor="start" x="124.1367" y="-130.8" font-family="Times,serif" baseline-shift="super" font-size="14.00" fill="#000000">(3)</text>
</g>
<!-- a22 -->
<g id="node2" class="node">
<title>a22</title>
<ellipse fill="none" stroke="#ee0000" cx="43" cy="-74" rx="27" ry="18"/>
</g>
<!-- a22&#45;&gt;a13 -->
<g id="edge2" class="edge">
<title>a22&#45;&gt;a13</title>
<path fill="none" stroke="#000000" d="M70.2187,-74C95.0303,-74 131.9747,-74 159.9833,-74"/>
<polygon fill="#000000" stroke="#000000" points="160.2365,-77.5001 170.2365,-74 160.2364,-70.5001 160.2365,-77.5001"/>
<text text-anchor="start" x="99.7827" y="-89.8" font-family="Times,serif" font-size="14.00" fill="#000000">w</text>
<text text-anchor="start" x="109.8931" y="-89.8" font-family="Times,serif" baseline-shift="sub" font-size="14.00" fill="#000000">12</text>
<text text-anchor="start" x="123.8931" y="-89.8" font-family="Times,serif" baseline-shift="super" font-size="14.00" fill="#000000">(3)</text>
</g>
<!-- a32 -->
<g id="node3" class="node">
<title>a32</title>
<ellipse fill="none" stroke="#ee0000" cx="43" cy="-34" rx="27" ry="18"/>
</g>
<!-- a32&#45;&gt;a13 -->
<g id="edge3" class="edge">
<title>a32&#45;&gt;a13</title>
<path fill="none" stroke="#000000" d="M69.4924,-30.3384C92.4712,-28.3763 126.0282,-28.5004 152,-41 157.9535,-43.8653 156.8756,-47.8293 162,-52 163.9883,-53.6183 166.1086,-55.1961 168.2905,-56.7154"/>
<polygon fill="#000000" stroke="#000000" points="166.5612,-59.7649 176.8611,-62.2474 170.3574,-53.8837 166.5612,-59.7649"/>
<text text-anchor="start" x="99.7827" y="-53.8" font-family="Times,serif" font-size="14.00" fill="#000000">w</text>
<text text-anchor="start" x="109.8931" y="-53.8" font-family="Times,serif" baseline-shift="sub" font-size="14.00" fill="#000000">13</text>
<text text-anchor="start" x="123.8931" y="-53.8" font-family="Times,serif" baseline-shift="super" font-size="14.00" fill="#000000">(3)</text>
</g>
<!-- a23 -->
<g id="node5" class="node">
<title>a23</title>
<ellipse fill="none" stroke="#ee0000" cx="199.2619" cy="-34" rx="29.0257" ry="18"/>
<text text-anchor="start" x="184.0998" y="-30.8" font-family="Times,serif" font-size="14.00" fill="#000000">b</text>
<text text-anchor="start" x="191.0998" y="-30.8" font-family="Times,serif" baseline-shift="sub" font-size="14.00" fill="#000000">1</text>
<text text-anchor="start" x="198.0998" y="-30.8" font-family="Times,serif" baseline-shift="super" font-size="14.00" fill="#000000">(3)</text>
</g>
</g>
</svg>
